<?xml version="1.0" encoding="UTF-8" standalone="no"?>
<!-- Created with Inkscape (http://www.inkscape.org/) -->

<svg
   width="1024"
   height="1024"
   id="svg2"
   version="1.1"
   inkscape:version="1.2 (dc2aedaf03, 2022-05-15)"
   sodipodi:docname="ravenry.svg"
   inkscape:export-filename="ravenry.png"
   inkscape:export-xdpi="96"
   inkscape:export-ydpi="96"
   xmlns:inkscape="http://www.inkscape.org/namespaces/inkscape"
   xmlns:sodipodi="http://sodipodi.sourceforge.net/DTD/sodipodi-0.dtd"
   xmlns:xlink="http://www.w3.org/1999/xlink"
   xmlns="http://www.w3.org/2000/svg"
   xmlns:svg="http://www.w3.org/2000/svg"
   xmlns:rdf="http://www.w3.org/1999/02/22-rdf-syntax-ns#"
   xmlns:cc="http://creativecommons.org/ns#"
   xmlns:dc="http://purl.org/dc/elements/1.1/">
  <defs
     id="defs4">
    <inkscape:path-effect
       effect="mirror_symmetry"
       start_point="446.21457,278.97486"
       end_point="446.21457,940.35687"
       center_point="446.21457,609.66586"
       id="path-effect9928"
       is_visible="true"
       lpeversion="1.2"
       lpesatellites=""
       mode="free"
       discard_orig_path="true"
       fuse_paths="false"
       oposite_fuse="false"
       split_items="false"
       split_open="false"
       link_styles="false" />
    <inkscape:path-effect
       effect="powerstroke"
       id="path-effect9926"
       is_visible="true"
       lpeversion="1"
       offset_points="0.02699294,7.9520724 | 0.59275179,11.842601 | 0.32644844,12.575148 | 0.15363712,13.165177 | 0.77396739,14.156645 | 0.98122643,8.1414608"
       not_jump="false"
       sort_points="true"
       interpolator_type="CentripetalCatmullRom"
       interpolator_beta="0.2"
       start_linecap_type="zerowidth"
       linejoin_type="round"
       miter_limit="4"
       scale_width="1"
       end_linecap_type="zerowidth" />
    <inkscape:path-effect
       effect="powerstroke"
       id="path-effect9922"
       is_visible="true"
       lpeversion="1"
       offset_points="0.02699294,7.9520724 | 0.50407649,14.626279 | 0.31451424,11.4352 | 0.16085913,11.855442 | 0.73359146,12.654524 | 0.98122643,8.1414608"
       not_jump="false"
       sort_points="true"
       interpolator_type="CentripetalCatmullRom"
       interpolator_beta="0.2"
       start_linecap_type="zerowidth"
       linejoin_type="round"
       miter_limit="4"
       scale_width="1"
       end_linecap_type="zerowidth" />
    <inkscape:path-effect
       effect="powerstroke"
       id="path-effect9918"
       is_visible="true"
       lpeversion="1"
       offset_points="0.02699294,7.9520724 | 0.46722435,11.1337 | 0.31451424,11.4352 | 0.16085913,11.855442 | 0.73359146,12.654524 | 0.98122643,8.1414608"
       not_jump="false"
       sort_points="true"
       interpolator_type="CentripetalCatmullRom"
       interpolator_beta="0.2"
       start_linecap_type="zerowidth"
       linejoin_type="round"
       miter_limit="4"
       scale_width="1"
       end_linecap_type="zerowidth" />
    <inkscape:path-effect
       effect="powerstroke"
       id="path-effect9914"
       is_visible="true"
       lpeversion="1"
       offset_points="0.042531879,9.6013788 | 0.46722435,11.1337 | 0.29828114,12.746499 | 0.16085913,11.855442 | 0.66753616,9.2718257 | 0.98764634,7.3283549"
       not_jump="false"
       sort_points="true"
       interpolator_type="CentripetalCatmullRom"
       interpolator_beta="0.2"
       start_linecap_type="zerowidth"
       linejoin_type="round"
       miter_limit="4"
       scale_width="1"
       end_linecap_type="zerowidth" />
    <inkscape:path-effect
       effect="powerstroke"
       id="path-effect8854"
       is_visible="true"
       lpeversion="1"
       offset_points="0.042531879,9.6013788 | 0.46722435,11.1337 | 0.30207855,10.791013 | 0.16085913,11.855442 | 0.66753616,9.2718257 | 0.98764634,7.3283549"
       not_jump="false"
       sort_points="true"
       interpolator_type="CentripetalCatmullRom"
       interpolator_beta="0.2"
       start_linecap_type="zerowidth"
       linejoin_type="round"
       miter_limit="4"
       scale_width="1"
       end_linecap_type="zerowidth" />
    <linearGradient
       id="linearGradient3902">
      <stop
         style="stop-color:#ffffff;stop-opacity:1;"
         offset="0"
         id="stop3904" />
      <stop
         style="stop-color:#fff9f9;stop-opacity:0.72868216;"
         offset="1"
         id="stop3906" />
    </linearGradient>
    <linearGradient
       id="linearGradient4110">
      <stop
         style="stop-color:#ee2722;stop-opacity:1"
         offset="0"
         id="stop4112" />
      <stop
         style="stop-color:#231f20;stop-opacity:1"
         offset="1"
         id="stop4114" />
    </linearGradient>
    <inkscape:perspective
       sodipodi:type="inkscape:persp3d"
       inkscape:vp_x="-395.66113 : 161.97816 : 1"
       inkscape:vp_y="0 : 1971.1104 : 0"
       inkscape:vp_z="1589.8053 : 240.3786 : 1"
       inkscape:persp3d-origin="389.22784 : -74.246352 : 1"
       id="perspective4094" />
    <linearGradient
       id="linearGradient4483">
      <stop
         style="stop-color:#303753;stop-opacity:1;"
         offset="0"
         id="stop4487" />
      <stop
         style="stop-color:#161926;stop-opacity:1;"
         offset="1"
         id="stop4485" />
    </linearGradient>
    <linearGradient
       inkscape:collect="always"
       xlink:href="#linearGradient4483"
       id="linearGradient4116"
       x1="665.625"
       y1="-58.748173"
       x2="456.25"
       y2="1093.1155"
       gradientUnits="userSpaceOnUse"
       gradientTransform="scale(1,1.001095)" />
    <linearGradient
       inkscape:collect="always"
       xlink:href="#linearGradient3902"
       id="linearGradient3908"
       x1="509.1376"
       y1="513.90118"
       x2="467.15973"
       y2="1029.1136"
       gradientUnits="userSpaceOnUse"
       gradientTransform="matrix(1.2524295,0,0,1.2524296,-146.91309,-129.30104)" />
    <inkscape:path-effect
       effect="powerstroke"
       id="path-effect8854-1"
       is_visible="true"
       lpeversion="1"
       offset_points="0.02699294,7.9520724 | 0.46722435,11.1337 | 0.31451424,11.4352 | 0.16085913,11.855442 | 0.73359146,12.654524 | 0.98122643,8.1414608"
       not_jump="false"
       sort_points="true"
       interpolator_type="CentripetalCatmullRom"
       interpolator_beta="0.2"
       start_linecap_type="zerowidth"
       linejoin_type="round"
       miter_limit="4"
       scale_width="1"
       end_linecap_type="zerowidth" />
    <inkscape:path-effect
       effect="powerstroke"
       id="path-effect8854-1-7"
       is_visible="true"
       lpeversion="1"
       offset_points="0.02699294,7.9520724 | 0.46722435,11.1337 | 0.31451424,11.4352 | 0.16085913,11.855442 | 0.73359146,12.654524 | 0.98122643,8.1414608"
       not_jump="false"
       sort_points="true"
       interpolator_type="CentripetalCatmullRom"
       interpolator_beta="0.2"
       start_linecap_type="zerowidth"
       linejoin_type="round"
       miter_limit="4"
       scale_width="1"
       end_linecap_type="zerowidth" />
    <inkscape:path-effect
       effect="powerstroke"
       id="path-effect8854-1-7-5"
       is_visible="true"
       lpeversion="1"
       offset_points="0.02699294,7.9520724 | 0.59275179,11.842601 | 0.32644844,12.575148 | 0.15363712,13.165177 | 0.77396739,14.156645 | 0.98122643,8.1414608"
       not_jump="false"
       sort_points="true"
       interpolator_type="CentripetalCatmullRom"
       interpolator_beta="0.2"
       start_linecap_type="zerowidth"
       linejoin_type="round"
       miter_limit="4"
       scale_width="1"
       end_linecap_type="zerowidth" />
  </defs>
  <sodipodi:namedview
     id="base"
     pagecolor="#ffffff"
     bordercolor="#666666"
     borderopacity="1.0"
     inkscape:pageopacity="0.0"
     inkscape:pageshadow="2"
     inkscape:zoom="0.45254836"
     inkscape:cx="700.47762"
     inkscape:cy="692.74364"
     inkscape:document-units="px"
     inkscape:current-layer="g9910"
     showgrid="false"
     showguides="true"
     inkscape:guide-bbox="true"
     fit-margin-top="0"
     fit-margin-left="0"
     fit-margin-right="0"
     fit-margin-bottom="0"
     inkscape:window-width="1327"
     inkscape:window-height="1128"
     inkscape:window-x="1919"
     inkscape:window-y="633"
     inkscape:window-maximized="0"
     inkscape:showpageshadow="false"
     borderlayer="true"
     showborder="false"
     inkscape:snap-global="false"
     inkscape:snap-page="false"
     inkscape:snap-bbox="true"
     inkscape:pagecheckerboard="0"
     inkscape:deskcolor="#d1d1d1">
    <sodipodi:guide
       orientation="0,1"
       position="-10.429825,956.71547"
       id="guide3101"
       inkscape:locked="false" />
    <sodipodi:guide
       orientation="1,0"
       position="956.5625,59.8125"
       id="guide3103"
       inkscape:locked="false" />
    <sodipodi:guide
       orientation="0,1"
       position="1246.875,315.625"
       id="guide3105"
       inkscape:locked="false" />
    <sodipodi:guide
       orientation="1,0"
       position="67.351921,64.523494"
       id="guide3107"
       inkscape:locked="false" />
    <sodipodi:guide
       orientation="0,1"
       position="961.5,67.5"
       id="guide3109"
       inkscape:locked="false" />
    <sodipodi:guide
       orientation="1,0"
       position="319.08193,67.707547"
       id="guide3111"
       inkscape:locked="false" />
    <sodipodi:guide
       orientation="1,0"
       position="511.68014,67.707547"
       id="guide3113"
       inkscape:locked="false" />
    <sodipodi:guide
       orientation="1,0"
       position="706.1875,64.734375"
       id="guide3115"
       inkscape:locked="false" />
    <sodipodi:guide
       orientation="0,1"
       position="-21.213203,1024"
       id="guide3117"
       inkscape:locked="false" />
    <sodipodi:guide
       orientation="0,1"
       position="0,0"
       id="guide3119"
       inkscape:locked="false" />
    <sodipodi:guide
       orientation="1,0"
       position="0,1042.6289"
       id="guide3121"
       inkscape:locked="false" />
    <sodipodi:guide
       orientation="0,1"
       position="-6.8942911,705"
       id="guide3123"
       inkscape:locked="false" />
    <sodipodi:guide
       orientation="1,0"
       position="1024,1037.75"
       id="guide3125"
       inkscape:locked="false" />
    <sodipodi:guide
       orientation="0,1"
       position="-27.223611,512.65241"
       id="guide3127"
       inkscape:locked="false" />
    <inkscape:grid
       type="xygrid"
       id="grid4235"
       empspacing="5"
       visible="true"
       enabled="true"
       snapvisiblegridlinesonly="true" />
    <sodipodi:guide
       orientation="1,0"
       position="511.68014,430.8932"
       id="guide4003"
       inkscape:locked="false" />
  </sodipodi:namedview>
  <metadata
     id="metadata7">
    <rdf:RDF>
      <cc:Work
         rdf:about="">
        <dc:format>image/svg+xml</dc:format>
        <dc:type
           rdf:resource="http://purl.org/dc/dcmitype/StillImage" />
      </cc:Work>
    </rdf:RDF>
  </metadata>
  <g
     inkscape:groupmode="layer"
     id="layer5"
     inkscape:label="Background"
     style="display:inline">
    <rect
       style="color:#000000;display:inline;overflow:visible;visibility:visible;fill:url(#linearGradient4116);fill-opacity:1;fill-rule:nonzero;stroke:none;stroke-width:2;marker:none;enable-background:accumulate"
       id="rect4108"
       width="1024"
       height="1024"
       x="0"
       y="1.5099033e-14"
       inkscape:label="rect4108" />
  </g>
  <g
     inkscape:groupmode="layer"
     id="layer3"
     inkscape:label="Layer"
     style="display:inline">
    <g
       id="g3061"
       style="display:none">
      <g
         inkscape:corner7="-0.059095309 : 0.23170886 : 0.66863098 : 1"
         inkscape:corner0="0.55545974 : 0.45292785 : 0 : 1"
         inkscape:perspectiveID="#perspective4094"
         id="g3047"
         style="fill:#231f20;fill-opacity:1;stroke:none"
         sodipodi:type="inkscape:box3d">
        <path
           d="M 554.13526,543.25461 916.78778,421.54248 v 270.91481 l -362.65252,46.85364 z"
           inkscape:box3dsidetype="11"
           style="fill:#e9e9ff;fill-rule:evenodd;stroke:none"
           id="path3059"
           sodipodi:type="inkscape:box3dside"
           points="916.78778,421.54248 916.78778,692.45729 554.13526,739.31093 554.13526,543.25461 " />
        <path
           d="M 108.94143,439.93037 V 720.2636 l 445.19383,19.04733 V 543.25461 Z"
           inkscape:box3dsidetype="6"
           style="fill:#353564;fill-rule:evenodd;stroke:none"
           id="path3049"
           sodipodi:type="inkscape:box3dside"
           points="108.94143,720.2636 554.13526,739.31093 554.13526,543.25461 108.94143,439.93037 " />
        <path
           d="M 108.94143,439.93037 438.52428,164.23992 916.78778,421.54248 554.13526,543.25461 Z"
           inkscape:box3dsidetype="5"
           style="fill:#4d4d9f;fill-rule:evenodd;stroke:none"
           id="path3051"
           sodipodi:type="inkscape:box3dside"
           points="438.52428,164.23992 916.78778,421.54248 554.13526,543.25461 108.94143,439.93037 " />
        <path
           d="m 108.94143,720.2636 329.58285,-92.58987 478.2635,64.78356 -362.65252,46.85364 z"
           inkscape:box3dsidetype="13"
           style="fill:#000000;fill-rule:evenodd;stroke:none"
           id="path3057"
           sodipodi:type="inkscape:box3dside"
           points="438.52428,627.67373 916.78778,692.45729 554.13526,739.31093 108.94143,720.2636 " />
        <path
           d="m 438.52428,164.23992 v 463.43381 l 478.2635,64.78356 V 421.54248 Z"
           inkscape:box3dsidetype="14"
           style="fill:#bdbcbc;fill-rule:evenodd;stroke:none"
           id="path3055"
           sodipodi:type="inkscape:box3dside"
           points="438.52428,627.67373 916.78778,692.45729 916.78778,421.54248 438.52428,164.23992 " />
        <path
           d="M 108.94143,439.93037 438.52428,164.23992 V 627.67373 L 108.94143,720.2636 Z"
           inkscape:box3dsidetype="3"
           style="fill:#656263;fill-rule:evenodd;stroke:none"
           id="path3053"
           sodipodi:type="inkscape:box3dside"
           points="438.52428,164.23992 438.52428,627.67373 108.94143,720.2636 108.94143,439.93037 " />
      </g>
    </g>
    <g
       inkscape:groupmode="layer"
       id="layer7"
       inkscape:label="PAW L"
       style="display:inline"
       transform="translate(53.033007,-141.42135)">
      <path
         style="fill:#c1a657;fill-opacity:1;fill-rule:nonzero;stroke:none;stroke-width:10;stroke-dasharray:none;stroke-opacity:1"
         d="m 343.59689,940.35687 c -0.63289,-3.44012 -0.3635,-12.72051 -3.24663,-20.0819 -4.23558,-10.81457 -16.41894,-25.65669 -23.40785,-36.41492 -5.17184,-7.96116 -10.43263,-15.42464 -15.20052,-22.84389 -2.6745,-4.16175 -5.19229,-8.30711 -7.44899,-12.51142 -6.75867,-12.59168 -11.52936,-25.54377 -16.02038,-39.22235 -0.85853,-2.61488 -1.69879,-5.25604 -2.51314,-7.92148 -3.83685,-12.55832 -7.49035,-26.8492 -10.19263,-45.11153 -1.03991,-7.02782 -1.75163,-15.93848 -2.28779,-26.69312 -0.82457,-16.53958 -1.17308,-37.19675 -2.09884,-56.73688 -0.92434,-19.51029 -2.46333,-37.67138 -5.42062,-44.44957 -2.16129,-4.95374 -6.33005,-5.14275 -7.59683,-6.1847 -1.17381,1.14567 -5.31068,1.68702 -7.04683,6.80295 -2.34556,6.91167 -2.43963,25.30057 -1.58305,44.81903 0.88592,20.18696 2.6872,40.12893 4.5599,57.27976 1.18351,10.83889 2.35895,20.1693 3.06762,27.41445 1.86774,19.09516 4.05171,34.64788 7.47957,48.63994 0.72487,2.95881 1.51398,5.88339 2.37908,8.78367 4.55473,15.26993 11.14226,28.89595 18.15633,42.59483 2.34288,4.57577 4.7041,9.19625 7.18984,13.84519 4.42892,8.28314 9.24609,16.64114 14.9221,24.75709 8.04938,11.50956 17.84096,27.09736 27.72749,34.71007 6.34854,4.88842 15.41528,7.03959 18.58217,8.52478 z"
         id="path7214"
         sodipodi:nodetypes="cc"
         inkscape:path-effect="#path-effect8854"
         inkscape:original-d="M 343.59689,940.35687 C 254.25742,824.55414 255.68841,799.26806 248.16267,622.18511" />
      <path
         style="display:inline;fill:#c1a657;fill-opacity:1;fill-rule:nonzero;stroke:none;stroke-width:10;stroke-dasharray:none;stroke-opacity:1"
         d="m 249.73688,622.54932 c 1.25142,-1.96473 5.75324,-5.87449 7.55967,-11.53027 1.75658,-5.49968 2.35848,-14.33984 2.66725,-23.50146 0.31034,-9.20796 0.34589,-18.84814 0.78549,-26.84545 0.54253,-9.87004 0.73994,-20.02948 1.06213,-29.52422 0.23328,-6.87458 0.53423,-13.54738 1.07146,-20.01932 1.20762,-14.54819 2.75784,-29.01133 5.60477,-44.84303 0.54341,-3.02185 1.16762,-6.17106 1.86604,-9.44107 4.40231,-20.61172 11.99013,-45.84 18.49185,-70.89896 0.4585,-1.76715 0.95061,-3.60243 1.47264,-5.50179 3.87618,-14.10316 9.47989,-31.86754 14.25529,-48.99444 4.75686,-17.0604 8.66497,-33.53719 8.07811,-41.63798 -0.43359,-5.98514 -4.36103,-9.01292 -5.22727,-10.83647 -1.73145,1.03817 -6.67747,1.38142 -10.35712,6.11839 -4.94977,6.37206 -10.91379,22.31063 -16.35897,39.17942 -5.64927,17.50106 -10.35975,34.68139 -14.61113,49.32579 -0.55651,1.91696 -1.10026,3.77126 -1.62998,5.54708 -7.84794,26.30893 -12.50546,50.97996 -16.27927,73.48479 -0.42615,2.54131 -1.21459,7.31269 -1.64074,9.854 -2.68892,16.10731 -4.99177,31.83694 -6.44091,46.57599 -0.66319,6.7453 -1.3646,13.58817 -1.93999,20.7239 -0.80293,9.95753 -1.3317,20.17667 -1.12442,30.48776 0.17056,8.48449 0.13478,17.83688 0.67602,27.50311 0.52491,9.37472 1.5784,18.25509 3.68205,23.73038 2.1508,5.59802 6.93968,9.18009 8.33703,11.04385 z"
         id="path7214-5"
         sodipodi:nodetypes="cc"
         inkscape:path-effect="#path-effect8854-1"
         inkscape:original-d="M 249.73688,622.54932 C 244.3305,480.71646 261.33781,431.40858 307.42431,278.97486" />
      <path
         style="display:inline;fill:#c1a657;fill-opacity:1;fill-rule:nonzero;stroke:none;stroke-width:10;stroke-dasharray:none;stroke-opacity:1"
         d="m 266.28976,628.03721 c 2.01946,-0.0875 7.30318,1.32033 12.00037,-0.42109 8.91337,-3.30453 22.48334,-16.85784 31.91641,-25.32393 6.06492,-5.44321 11.68441,-11.32915 17.03889,-17.21922 3.819,-4.201 7.49709,-8.39803 11.12172,-12.4397 7.87284,-8.77869 16.29154,-19.01884 24.67078,-29.62594 1.7037,-2.15667 3.50947,-4.42808 5.21317,-6.58475 11.95012,-15.12573 25.17084,-32.64927 37.42428,-54.57227 0.82545,-1.47684 1.69492,-3.0203 2.59588,-4.61535 6.9479,-12.30047 15.08974,-26.5551 22.96561,-42.41245 7.54153,-15.1842 14.03885,-30.3706 14.8945,-38.2017 0.66353,-6.07273 -2.84296,-9.46415 -3.40419,-11.37681 -1.86645,0.69973 -6.67613,-0.0656 -11.14229,4.06015 -5.73478,5.29771 -14.08074,19.46578 -22.18152,34.0416 -8.16029,14.68287 -16.20601,29.90643 -22.92901,41.31716 -0.90535,1.53663 -1.78731,3.00776 -2.6456,4.40956 -13.28966,21.70528 -22.3708,37.90566 -33.6357,53.82274 -1.60994,2.27482 -3.18676,4.42362 -4.72902,6.4375 -8.06442,10.53053 -15.99533,19.30041 -23.98149,27.87443 -3.55884,3.8208 -7.36599,7.58906 -11.2989,11.43933 -5.48445,5.3692 -11.22037,10.90361 -16.62067,16.75792 -8.28297,8.97932 -22.56283,22.15515 -26.22427,30.6788 -1.97256,4.59203 -0.85246,9.94224 -1.04895,11.95402 z"
         id="path7214-5-7"
         sodipodi:nodetypes="cc"
         inkscape:path-effect="#path-effect8854-1-7"
         inkscape:original-d="M 266.28976,628.03721 C 348.38338,550.26685 373.20319,524.39647 442.72718,385.244" />
      <path
         style="display:inline;fill:#c1a657;fill-opacity:1;fill-rule:nonzero;stroke:none;stroke-width:10;stroke-dasharray:none;stroke-opacity:1"
         d="m 233.54599,625.85662 c 0.001,-2.05252 1.53143,-7.33066 0.0861,-12.20523 -2.67463,-9.02071 -14.0251,-23.23507 -21.60845,-33.70667 -5.30592,-7.32677 -10.93325,-13.92211 -16.66357,-20.86888 -4.08853,-4.95645 -8.21499,-10.07786 -12.07323,-15.54682 -7.69815,-10.91196 -15.3828,-22.81091 -21.96002,-36.62832 -3.52519,-7.40573 -6.45968,-14.79944 -8.79822,-22.08406 -4.48073,-13.95753 -6.24712,-29.21538 -8.9016,-45.11112 -0.4211,-2.52171 -0.86824,-5.108 -1.35919,-7.81403 -2.23731,-12.33162 -3.85549,-25.62667 -5.99869,-43.16191 -1.94106,-15.88129 -4.00173,-32.50478 -6.9587,-39.69763 -2.35176,-5.72068 -6.99625,-7.41379 -8.38952,-8.93729 -1.3198,1.58757 -5.89918,3.50713 -7.8854,9.44746 -2.56127,7.66017 -3.28391,24.37985 -2.74916,41.16432 0.56115,17.61306 2.33223,33.03134 4.00975,45.56974 0.38815,2.90118 0.83864,5.68889 1.33986,8.38115 3.19944,17.1855 9.01605,32.68904 14.48109,47.82165 2.87488,7.96051 6.01208,15.98813 9.75493,24.32696 6.94293,15.46836 14.64657,28.97763 22.68758,40.96799 3.98548,5.94295 7.95669,11.84553 11.84905,17.32294 5.44155,7.65748 11.05647,14.95714 17.32838,21.63292 9.08851,9.67376 21.31675,23.11176 29.76566,27.2084 4.56656,2.2142 10.01949,1.57647 12.04333,1.91843 z"
         id="path7214-5-7-4"
         sodipodi:nodetypes="cc"
         inkscape:path-effect="#path-effect8854-1-7-5"
         inkscape:original-d="M 233.54599,625.85662 C 158.60837,537.14876 124.83443,505.80963 120.92092,340.09466" />
    </g>
    <g
       inkscape:groupmode="layer"
       id="g9910"
       inkscape:label="PAW R"
       style="display:inline"
       transform="translate(134.79222,-11.048542)"
       inkscape:path-effect="#path-effect9928"
       class="UnoptimicedTransforms">
      <path
         style="fill:#c1a657;fill-opacity:1;fill-rule:nonzero;stroke:none;stroke-width:10;stroke-dasharray:none;stroke-opacity:1"
         d="m 548.83225,940.35687 c 0.63289,-3.44012 0.3635,-12.72051 3.24663,-20.0819 4.39539,-11.22259 16.29987,-24.9464 23.40785,-36.41492 5.02005,-8.0997 9.66776,-15.97046 13.95733,-23.57201 2.22578,-3.9443 4.38911,-7.87643 6.48247,-11.78329 6.83382,-12.75402 13.28344,-25.25086 18.23009,-39.22236 0.92155,-2.60286 1.8007,-5.22912 2.63919,-7.88698 3.966,-12.57145 7.36552,-26.89191 10.06658,-45.14603 1.03991,-7.02782 1.75163,-15.93848 2.28779,-26.69312 0.82457,-16.53958 1.17308,-37.19675 2.09884,-56.73688 0.92434,-19.51029 2.46333,-37.67138 5.42062,-44.44957 2.16129,-4.95374 6.33005,-5.14275 7.59683,-6.1847 1.17381,1.14567 5.31068,1.68702 7.04683,6.80295 2.34556,6.91167 2.43963,25.30057 1.58305,44.81903 -0.88592,20.18696 -2.6872,40.12893 -4.5599,57.27976 -1.18351,10.83889 -2.35895,20.1693 -3.06762,27.41445 -1.8645,19.062 -4.29918,34.60384 -7.60563,48.60544 -0.69851,2.95796 -1.44741,5.89471 -2.25302,8.81817 -4.33651,15.73676 -9.58981,30.4001 -16.94529,44.49264 -2.24056,4.29275 -4.63329,8.50961 -7.15769,12.67551 -4.87146,8.03912 -10.29523,15.99005 -16.16529,24.02896 -8.22336,11.26169 -17.83927,27.09606 -27.72749,34.71007 -6.34854,4.88842 -15.41528,7.03959 -18.58217,8.52478 z"
         id="path9902"
         sodipodi:nodetypes="cc"
         inkscape:path-effect="#path-effect9914"
         inkscape:original-d="M 343.59689,940.35687 C 254.25742,824.55414 255.68841,799.26806 248.16267,622.18511" />
      <path
         style="display:inline;fill:#c1a657;fill-opacity:1;fill-rule:nonzero;stroke:none;stroke-width:10;stroke-dasharray:none;stroke-opacity:1"
         d="m 642.69226,622.54932 c -1.25142,-1.96473 -5.75324,-5.87449 -7.55967,-11.53027 -1.75658,-5.49968 -2.35848,-14.33984 -2.66725,-23.50146 -0.31034,-9.20796 -0.34589,-18.84814 -0.78549,-26.84545 -0.54253,-9.87004 -0.73994,-20.02948 -1.06213,-29.52422 -0.23328,-6.87458 -0.53423,-13.54738 -1.07146,-20.01932 -1.20762,-14.54819 -2.75784,-29.01133 -5.60477,-44.84303 -0.54341,-3.02185 -1.16762,-6.17106 -1.86604,-9.44107 -4.40231,-20.61172 -11.99013,-45.84 -18.49185,-70.89896 -0.4585,-1.76715 -0.95061,-3.60243 -1.47264,-5.50179 -3.87618,-14.10316 -9.47989,-31.86754 -14.25529,-48.99444 -4.75686,-17.0604 -8.66497,-33.53719 -8.07811,-41.63798 0.43359,-5.98514 4.36103,-9.01292 5.22727,-10.83647 1.73145,1.03817 6.67747,1.38142 10.35712,6.11839 4.94977,6.37206 10.91379,22.31063 16.35897,39.17942 5.64927,17.50106 10.35975,34.68139 14.61113,49.32579 0.55651,1.91696 1.10026,3.77126 1.62998,5.54708 7.84794,26.30893 12.50546,50.97996 16.27927,73.48479 0.42615,2.54131 1.21459,7.31269 1.64074,9.854 2.68892,16.10731 4.99177,31.83694 6.44091,46.57599 0.66319,6.7453 1.3646,13.58817 1.93999,20.7239 0.80293,9.95753 1.3317,20.17667 1.12442,30.48776 -0.17056,8.48449 -0.13478,17.83688 -0.67602,27.50311 -0.52491,9.37472 -1.5784,18.25509 -3.68205,23.73038 -2.1508,5.59802 -6.93968,9.18009 -8.33703,11.04385 z"
         id="path9904"
         sodipodi:nodetypes="cc"
         inkscape:path-effect="#path-effect9918"
         inkscape:original-d="M 249.73688,622.54932 C 244.3305,480.71646 261.33781,431.40858 307.42431,278.97486" />
      <path
         style="display:inline;fill:#c1a657;fill-opacity:1;fill-rule:nonzero;stroke:none;stroke-width:10;stroke-dasharray:none;stroke-opacity:1"
         d="m 626.13938,628.03721 c -2.01946,-0.0875 -7.25202,1.36878 -11.94208,-0.2781 -4.34504,-1.52572 -10.04152,-5.55842 -15.67225,-9.8907 -5.6757,-4.36686 -11.40825,-9.11892 -16.35847,-12.80033 -6.24666,-4.64556 -11.88758,-9.59977 -17.56139,-14.43645 -3.93277,-3.35252 -7.86819,-6.6377 -12.04884,-9.74903 -11.1184,-8.27454 -23.67432,-15.25538 -35.35364,-25.59379 -0.24487,-0.21675 -0.4893,-0.43496 -0.73326,-0.65466 -13.25166,-11.93388 -25.79505,-27.21701 -39.03071,-47.09326 -0.88514,-1.32923 -1.82674,-2.72907 -2.80741,-4.18437 -7.48562,-11.10856 -15.96688,-23.69164 -24.54337,-39.22195 -8.09554,-14.65939 -14.95079,-29.80569 -15.90902,-37.67064 -0.7502,-6.15749 2.80839,-9.4762 3.36962,-11.38886 1.86645,0.69973 6.63103,-0.14599 11.13309,3.98581 5.59103,5.13122 14.10793,19.38434 22.33978,32.96811 8.82244,14.55832 16.40612,26.83911 23.95103,36.85228 0.9906,1.31467 1.9553,2.55442 2.89238,3.71564 13.9675,17.30853 26.92987,29.39826 38.54778,40.63672 0.21578,0.20874 0.4309,0.41755 0.64539,0.62642 10.23048,9.96262 19.2009,20.25774 29.69344,29.0906 3.93659,3.31391 8.08047,6.37952 12.27462,9.45936 6.07116,4.45817 12.27112,8.96369 18.2116,14.35321 4.80065,4.35541 10.42521,9.14166 15.82022,14.44563 5.2741,5.18512 9.96135,10.55092 11.92208,14.85941 2.10092,4.61656 0.96292,9.95717 1.15941,11.96895 z"
         id="path9906"
         sodipodi:nodetypes="cc"
         inkscape:path-effect="#path-effect9922"
         inkscape:original-d="M 266.28976,628.03721 C 348.38338,550.26685 385.35659,554.22754 454.88058,415.07507" />
      <path
         style="display:inline;fill:#c1a657;fill-opacity:1;fill-rule:nonzero;stroke:none;stroke-width:10;stroke-dasharray:none;stroke-opacity:1"
         d="m 658.88315,625.85662 c -10e-4,-2.05252 -1.5129,-7.35131 -0.11772,-12.20851 2.56031,-8.91355 13.90023,-23.61009 21.31418,-34.50806 5.24518,-7.71003 10.76634,-14.72876 16.4631,-22.34167 4.05221,-5.4152 8.14217,-11.06942 11.97005,-17.14765 7.6477,-12.14367 15.27072,-25.5555 21.82877,-41.11004 3.50516,-8.31362 6.42178,-16.57802 8.73663,-24.62988 4.43414,-15.42349 6.14923,-31.99128 8.76028,-48.93635 0.41412,-2.68755 0.85471,-5.43893 1.33866,-8.30599 2.21097,-13.0986 3.76526,-26.93616 5.8769,-44.98906 1.91206,-16.34664 3.95353,-33.05836 6.9609,-40.3036 2.35038,-5.66243 6.9952,-7.43532 8.38847,-8.95882 1.3198,1.58757 5.89358,3.58771 7.88665,9.46284 2.60771,7.68691 3.33992,24.51801 2.82157,41.69505 -0.5434,18.00705 -2.29099,34.02789 -3.9164,47.1714 -0.37615,3.04172 -0.81424,5.97269 -1.30277,8.81104 -3.11526,18.09955 -8.8359,34.81717 -14.16673,51.28734 -2.80266,8.65913 -5.86328,17.46674 -9.51263,26.64361 -6.78813,17.06986 -14.29895,32.02696 -22.26668,45.32061 -3.95553,6.59955 -7.85939,13.03634 -11.74478,19.04117 -5.41193,8.36409 -11.02131,16.26044 -17.32403,23.43722 -9.26861,10.55398 -21.24533,24.2999 -29.92423,28.57831 -4.56216,2.24899 -10.04635,1.64908 -12.07019,1.99104 z"
         id="path9908"
         sodipodi:nodetypes="cc"
         inkscape:path-effect="#path-effect9926"
         inkscape:original-d="M 233.54599,625.85662 C 158.60837,537.14876 125.93928,488.13196 122.02577,322.41699" />
    </g>
  </g>
  <g
     inkscape:label="BORDER"
     inkscape:groupmode="layer"
     id="layer1"
     transform="translate(50.25,211.52169)"
     style="display:none"
     sodipodi:insensitive="true">
    <path
       inkscape:connector-curvature="0"
       d="m 301.95446,-211.52169 319.59108,0 c 101.4156,0 152.12339,0 206.7084,17.25959 59.59748,21.69173 106.54481,68.63899 128.23654,128.236542 C 973.75,-11.44076 973.75,39.267072 973.75,140.68273 l 0,319.59116 c 0,101.41566 0,152.12349 -17.25952,206.70829 -21.69173,59.59758 -68.63906,106.54477 -128.23654,128.23654 -54.58501,17.25959 -105.2928,17.25959 -206.7084,17.25959 l -319.59108,0 c -101.4156,0 -152.12339,0 -206.708396,-17.25959 C 35.648581,773.52695 -11.298747,726.57976 -32.99048,666.98218 -50.25,612.39738 -50.25,561.68955 -50.25,460.27389 l 0,-319.59116 c 0,-101.415658 0,-152.12349 17.25952,-206.708254 21.691733,-59.597546 68.639061,-106.544846 128.236544,-128.236576 54.585006,-17.25959 105.292796,-17.25959 206.708396,-17.25959 l 0,0"
       id="path5"
       style="fill:none;stroke:#000000;stroke-opacity:1" />
  </g>
  <g
     inkscape:groupmode="layer"
     id="layer6"
     inkscape:label="MASK"
     style="display:none"
     sodipodi:insensitive="true">
    <path
       style="color:#000000;display:inline;overflow:visible;visibility:visible;fill:#ffffff;fill-opacity:1;fill-rule:nonzero;stroke:none;stroke-width:2;marker:none;enable-background:accumulate"
       d="m -0.03515625,708.40625 c 0.05564213,38.75762 0.61632351,71.02215 3.48917125,100.18549 0.8757813,8.89038 2.0231286,17.50673 3.364698,25.91301 2.7291509,17.10087 6.251639,30.63186 10.624705,44.6288 0.983104,3.14664 2.343873,6.00913 3.546782,8.89844 4.954414,11.90016 10.441772,22.62502 16.75229,32.23106 7.482354,11.38984 16.590926,23.44234 26.690428,33.79613 11.282296,11.56636 22.163363,20.60638 34.238258,28.7856 7.753914,5.2523 15.167714,9.80978 23.655414,13.91931 3.34329,1.61873 6.78353,3.25751 10.45545,4.87471 6.01057,2.6472 12.64725,5.2405 20.38236,7.4312 16.33865,4.6274 37.83594,9.5058 66.67436,11.7859 26.04947,2.0596 58.07248,3.2184 99.20801,3.1754 H -0.03515625 Z"
       id="path4146"
       inkscape:connector-curvature="0"
       sodipodi:nodetypes="csssssssssssccc" />
    <path
       style="color:#000000;display:inline;overflow:visible;visibility:visible;fill:#ffffff;fill-opacity:1;fill-rule:nonzero;stroke:none;stroke-width:2;marker:none;enable-background:accumulate"
       d="m 1024,708.375 c -0.028,33.52476 -0.3641,57.51886 -2.1872,86.13032 -2.1429,33.63123 -7.6767,62.03085 -16.1313,85.82727 -5.1582,14.5187 -11.40374,27.32387 -18.62968,38.55822 -10.39312,16.15845 -22.65083,31.16786 -36.89519,44.46448 -6.86448,6.40775 -13.96935,11.81612 -21.91877,17.50161 -10.37402,7.41958 -20.2254,13.06198 -32.1818,18.6383 -10.69022,4.9858 -23.165,9.4996 -39.90567,13.451 -11.58454,2.7344 -25.21186,5.3376 -41.70422,7.0737 -27.23282,2.8667 -62.17789,3.4121 -108.25867,3.9801 H 1024 Z"
       id="path4146-5"
       inkscape:connector-curvature="0"
       sodipodi:nodetypes="cssssssssccc" />
    <path
       style="color:#000000;display:inline;overflow:visible;visibility:visible;fill:#ffffff;fill-opacity:1;fill-rule:nonzero;stroke:none;stroke-width:2;marker:none;enable-background:accumulate"
       d="m 1023.9571,318.26274 c 0.1837,-39.14081 -0.2997,-73.55855 -3.476,-103.94061 -1.4113,-13.49969 -3.8539,-26.31006 -5.9548,-38.18792 -3.6187,-20.45841 -10.1174,-38.44655 -17.2973,-52.70888 -2.12747,-4.22606 -3.90726,-7.55456 -5.77779,-10.81658 -1.49793,-2.61224 -3.05404,-5.18185 -4.89348,-8.13563 -1.96035,-3.14791 -3.87346,-6.195884 -5.993,-9.197124 C 974.88453,87.232938 968.40279,79.35023 961.65509,72.082687 951.58996,61.242143 940.4011,51.100793 927.77306,42.698049 909.73264,30.693887 894.47219,21.390417 866.08729,13.614807 853.18652,10.080839 837.40303,6.7460486 817.42751,4.3881848 790.09127,1.1614792 754.65731,0.08073128 706.1875,0 H 1024 Z"
       id="path4146-5-3"
       inkscape:connector-curvature="0"
       sodipodi:nodetypes="cssssssssssccc" />
    <path
       style="color:#000000;display:inline;overflow:visible;visibility:visible;fill:#ffffff;fill-opacity:1;fill-rule:nonzero;stroke:none;stroke-width:2;marker:none;enable-background:accumulate"
       d="M 0,318.48 C 0.04438432,264.21497 1.9515494,215.42652 8.7981727,178.4577 14.754939,146.29372 24.640519,123.97857 37.889606,103.37989 53.29125,79.434582 73.01483,58.195063 97.250401,42.030991 111.80438,32.324119 124.48551,25.310001 143.39137,18.055461 153.25339,14.271217 164.74156,11.469151 178.08885,8.8727346 208.3231,2.9913388 250.69975,-0.29260813 319.08193,0 H 0 Z"
       id="path4146-5-3-7"
       inkscape:connector-curvature="0"
       sodipodi:nodetypes="csssssccc" />
  </g>
  <g
     inkscape:groupmode="layer"
     id="layer4"
     inkscape:label="FULL MASK to BG"
     style="display:none">
    <g
       id="g3108"
       transform="matrix(0.5649724,0,0,0.5649724,445.54508,-1009.2323)"
       style="fill:#ffffff">
      <path
         style="fill:#ffffff;fill-opacity:1"
         d="m -255.18484,3598.5738 c -65.89075,-0.4253 -133.31625,-3.6429 -171.28383,-8.1738 -35.62761,-4.2516 -75.24646,-12.6237 -101.97363,-21.5486 -19.91256,-6.6493 -47.54459,-19.4411 -66.12352,-30.6108 -37.44793,-22.5137 -72.20796,-52.2487 -98.54251,-84.2969 -24.29731,-29.5689 -41.20817,-56.8511 -55.47181,-89.4924 -6.61929,-15.1478 -8.38704,-19.8689 -11.92879,-31.8579 -16.20259,-54.8465 -23.54268,-107.7838 -26.58122,-191.706 -1.42838,-39.4507 -1.67596,-120.9647 -1.45114,-477.7704 0.16145,-256.2384 0.41117,-371.6315 0.83443,-385.5878 4.03548,-133.0627 14.45033,-200.8155 39.80624,-258.9554 22.87778,-52.4577 63.32922,-104.9173 108.81811,-141.1212 12.25925,-9.757 31.66981,-22.9097 46.90669,-31.7844 24.79601,-14.4423 54.99637,-27.5472 78.82329,-34.2039 41.36425,-11.5562 93.35603,-18.869 158.31851,-22.2681 28.5354,-1.493 42.80966,-1.8693 92.94472,-2.45 66.71195,-0.7727 774.97059,-0.3507 803.30789,0.4786 74.58713,2.1828 111.22328,5.1416 152.96045,12.3533 34.90069,6.0305 66.10255,14.5431 92.14805,25.1403 28.90007,11.7586 67.93807,35.6951 94.27249,57.8041 24.08118,20.2172 52.39634,51.696 69.50417,77.2697 27.40876,40.9722 44.92544,81.5642 54.48975,126.2709 2.0427,9.5481 7.5352,40.5742 9.5433,53.9079 4.7447,31.5043 7.3924,66.4897 8.9033,117.6415 0.8272,28.0023 1.2273,742.0895 0.4567,814.9924 -0.6825,64.5731 -1.8558,98.6886 -4.564,132.7029 -5.9213,74.3703 -21.87168,136.2374 -47.80384,185.4176 -7.83137,14.852 -18.80155,31.9295 -30.54535,47.5505 -23.00313,30.5976 -46.50391,54.389 -74.58963,75.5123 -48.63111,36.5753 -94.65909,56.7768 -158.32303,69.4872 -51.86283,10.3544 -93.05381,13.1537 -222.7503,15.1381 -27.97184,0.4279 -676.86617,0.5685 -740.10549,0.1603 z"
         id="path3124"
         inkscape:connector-curvature="0" />
      <path
         style="fill:#ffffff;fill-opacity:1"
         d="m -255.18484,3598.5738 c -65.89075,-0.4253 -133.31625,-3.6429 -171.28383,-8.1738 -35.62761,-4.2516 -75.24646,-12.6237 -101.97363,-21.5486 -19.91256,-6.6493 -47.54459,-19.4411 -66.12352,-30.6108 -37.44793,-22.5137 -72.20796,-52.2487 -98.54251,-84.2969 -24.29731,-29.5689 -41.20817,-56.8511 -55.47181,-89.4924 -6.61929,-15.1478 -8.38704,-19.8689 -11.92879,-31.8579 -16.20259,-54.8465 -23.54268,-107.7838 -26.58122,-191.706 -1.42838,-39.4507 -1.67596,-120.9647 -1.45114,-477.7704 0.16145,-256.2384 0.41117,-371.6315 0.83443,-385.5878 4.03548,-133.0627 14.45033,-200.8155 39.80624,-258.9554 22.87778,-52.4577 63.32922,-104.9173 108.81811,-141.1212 12.25925,-9.757 31.66981,-22.9097 46.90669,-31.7844 24.79601,-14.4423 54.99637,-27.5472 78.82329,-34.2039 41.36425,-11.5562 93.35603,-18.869 158.31851,-22.2681 28.5354,-1.493 42.80966,-1.8693 92.94472,-2.45 66.71195,-0.7727 774.97059,-0.3507 803.30789,0.4786 74.58713,2.1828 111.22328,5.1416 152.96045,12.3533 34.90069,6.0305 66.10255,14.5431 92.14805,25.1403 28.90007,11.7586 67.93807,35.6951 94.27249,57.8041 24.08118,20.2172 52.39634,51.696 69.50417,77.2697 27.40876,40.9722 44.92544,81.5642 54.48975,126.2709 2.0427,9.5481 7.5352,40.5742 9.5433,53.9079 4.7447,31.5043 7.3924,66.4897 8.9033,117.6415 0.8272,28.0023 1.2273,742.0895 0.4567,814.9924 -0.6825,64.5731 -1.8558,98.6886 -4.564,132.7029 -5.9213,74.3703 -21.87168,136.2374 -47.80384,185.4176 -7.83137,14.852 -18.80155,31.9295 -30.54535,47.5505 -23.00313,30.5976 -46.50391,54.389 -74.58963,75.5123 -48.63111,36.5753 -94.65909,56.7768 -158.32303,69.4872 -51.86283,10.3544 -93.05381,13.1537 -222.7503,15.1381 -27.97184,0.4279 -676.86617,0.5685 -740.10549,0.1603 z"
         id="path3122"
         inkscape:connector-curvature="0" />
      <path
         style="fill:#ffffff;fill-opacity:1"
         d="m -255.18484,3598.5738 c -65.89075,-0.4253 -133.31625,-3.6429 -171.28383,-8.1738 -35.62761,-4.2516 -75.24646,-12.6237 -101.97363,-21.5486 -19.91256,-6.6493 -47.54459,-19.4411 -66.12352,-30.6108 -37.44793,-22.5137 -72.20796,-52.2487 -98.54251,-84.2969 -24.29731,-29.5689 -41.20817,-56.8511 -55.47181,-89.4924 -6.61929,-15.1478 -8.38704,-19.8689 -11.92879,-31.8579 -16.20259,-54.8465 -23.54268,-107.7838 -26.58122,-191.706 -1.42838,-39.4507 -1.67596,-120.9647 -1.45114,-477.7704 0.16145,-256.2384 0.41117,-371.6315 0.83443,-385.5878 4.03548,-133.0627 14.45033,-200.8155 39.80624,-258.9554 22.87778,-52.4577 63.32922,-104.9173 108.81811,-141.1212 12.25925,-9.757 31.66981,-22.9097 46.90669,-31.7844 24.79601,-14.4423 54.99637,-27.5472 78.82329,-34.2039 41.36425,-11.5562 93.35603,-18.869 158.31851,-22.2681 28.5354,-1.493 42.80966,-1.8693 92.94472,-2.45 66.71195,-0.7727 774.97059,-0.3507 803.30789,0.4786 74.58713,2.1828 111.22328,5.1416 152.96045,12.3533 34.90069,6.0305 66.10255,14.5431 92.14805,25.1403 28.90007,11.7586 67.93807,35.6951 94.27249,57.8041 24.08118,20.2172 52.39634,51.696 69.50417,77.2697 27.40876,40.9722 44.92544,81.5642 54.48975,126.2709 2.0427,9.5481 7.5352,40.5742 9.5433,53.9079 4.7447,31.5043 7.3924,66.4897 8.9033,117.6415 0.8272,28.0023 1.2273,742.0895 0.4567,814.9924 -0.6825,64.5731 -1.8558,98.6886 -4.564,132.7029 -5.9213,74.3703 -21.87168,136.2374 -47.80384,185.4176 -7.83137,14.852 -18.80155,31.9295 -30.54535,47.5505 -23.00313,30.5976 -46.50391,54.389 -74.58963,75.5123 -48.63111,36.5753 -94.65909,56.7768 -158.32303,69.4872 -51.86283,10.3544 -93.05381,13.1537 -222.7503,15.1381 -27.97184,0.4279 -676.86617,0.5685 -740.10549,0.1603 z"
         id="path3120"
         inkscape:connector-curvature="0" />
      <path
         style="fill:#ffffff;fill-opacity:1"
         d="m -255.18484,3598.5738 c -65.89075,-0.4253 -133.31625,-3.6429 -171.28383,-8.1738 -35.62761,-4.2516 -75.24646,-12.6237 -101.97363,-21.5486 -19.91256,-6.6493 -47.54459,-19.4411 -66.12352,-30.6108 -37.44793,-22.5137 -72.20796,-52.2487 -98.54251,-84.2969 -24.29731,-29.5689 -41.20817,-56.8511 -55.47181,-89.4924 -6.61929,-15.1478 -8.38704,-19.8689 -11.92879,-31.8579 -16.20259,-54.8465 -23.54268,-107.7838 -26.58122,-191.706 -1.42838,-39.4507 -1.67596,-120.9647 -1.45114,-477.7704 0.16145,-256.2384 0.41117,-371.6315 0.83443,-385.5878 4.03548,-133.0627 14.45033,-200.8155 39.80624,-258.9554 22.87778,-52.4577 63.32922,-104.9173 108.81811,-141.1212 12.25925,-9.757 31.66981,-22.9097 46.90669,-31.7844 24.79601,-14.4423 54.99637,-27.5472 78.82329,-34.2039 41.36425,-11.5562 93.35603,-18.869 158.31851,-22.2681 28.5354,-1.493 42.80966,-1.8693 92.94472,-2.45 66.71195,-0.7727 774.97059,-0.3507 803.30789,0.4786 74.58713,2.1828 111.22328,5.1416 152.96045,12.3533 34.90069,6.0305 66.10255,14.5431 92.14805,25.1403 28.90007,11.7586 67.93807,35.6951 94.27249,57.8041 24.08118,20.2172 52.39634,51.696 69.50417,77.2697 27.40876,40.9722 44.92544,81.5642 54.48975,126.2709 2.0427,9.5481 7.5352,40.5742 9.5433,53.9079 4.7447,31.5043 7.3924,66.4897 8.9033,117.6415 0.8272,28.0023 1.2273,742.0895 0.4567,814.9924 -0.6825,64.5731 -1.8558,98.6886 -4.564,132.7029 -5.9213,74.3703 -21.87168,136.2374 -47.80384,185.4176 -7.83137,14.852 -18.80155,31.9295 -30.54535,47.5505 -23.00313,30.5976 -46.50391,54.389 -74.58963,75.5123 -48.63111,36.5753 -94.65909,56.7768 -158.32303,69.4872 -51.86283,10.3544 -93.05381,13.1537 -222.7503,15.1381 -27.97184,0.4279 -676.86617,0.5685 -740.10549,0.1603 z"
         id="path3118"
         inkscape:connector-curvature="0" />
      <path
         style="fill:#ffffff;fill-opacity:1"
         d="m -255.18484,3598.5738 c -65.89075,-0.4253 -133.31625,-3.6429 -171.28383,-8.1738 -35.62761,-4.2516 -75.24646,-12.6237 -101.97363,-21.5486 -19.91256,-6.6493 -47.54459,-19.4411 -66.12352,-30.6108 -37.44793,-22.5137 -72.20796,-52.2487 -98.54251,-84.2969 -24.29731,-29.5689 -41.20817,-56.8511 -55.47181,-89.4924 -6.61929,-15.1478 -8.38704,-19.8689 -11.92879,-31.8579 -16.20259,-54.8465 -23.54268,-107.7838 -26.58122,-191.706 -1.42838,-39.4507 -1.67596,-120.9647 -1.45114,-477.7704 0.16145,-256.2384 0.41117,-371.6315 0.83443,-385.5878 4.03548,-133.0627 14.45033,-200.8155 39.80624,-258.9554 22.87778,-52.4577 63.32922,-104.9173 108.81811,-141.1212 12.25925,-9.757 31.66981,-22.9097 46.90669,-31.7844 24.79601,-14.4423 54.99637,-27.5472 78.82329,-34.2039 41.36425,-11.5562 93.35603,-18.869 158.31851,-22.2681 28.5354,-1.493 42.80966,-1.8693 92.94472,-2.45 66.71195,-0.7727 774.97059,-0.3507 803.30789,0.4786 74.58713,2.1828 111.22328,5.1416 152.96045,12.3533 34.90069,6.0305 66.10255,14.5431 92.14805,25.1403 28.90007,11.7586 67.93807,35.6951 94.27249,57.8041 24.08118,20.2172 52.39634,51.696 69.50417,77.2697 27.40876,40.9722 44.92544,81.5642 54.48975,126.2709 2.0427,9.5481 7.5352,40.5742 9.5433,53.9079 4.7447,31.5043 7.3924,66.4897 8.9033,117.6415 0.8272,28.0023 1.2273,742.0895 0.4567,814.9924 -0.6825,64.5731 -1.8558,98.6886 -4.564,132.7029 -5.9213,74.3703 -21.87168,136.2374 -47.80384,185.4176 -7.83137,14.852 -18.80155,31.9295 -30.54535,47.5505 -23.00313,30.5976 -46.50391,54.389 -74.58963,75.5123 -48.63111,36.5753 -94.65909,56.7768 -158.32303,69.4872 -51.86283,10.3544 -93.05381,13.1537 -222.7503,15.1381 -27.97184,0.4279 -676.86617,0.5685 -740.10549,0.1603 z"
         id="path3116"
         inkscape:connector-curvature="0" />
      <path
         style="fill:#ffffff;fill-opacity:1"
         d="m -255.18484,3598.5738 c -65.89075,-0.4253 -133.31625,-3.6429 -171.28383,-8.1738 -35.62761,-4.2516 -75.24646,-12.6237 -101.97363,-21.5486 -19.91256,-6.6493 -47.54459,-19.4411 -66.12352,-30.6108 -37.44793,-22.5137 -72.20796,-52.2487 -98.54251,-84.2969 -24.29731,-29.5689 -41.20817,-56.8511 -55.47181,-89.4924 -6.61929,-15.1478 -8.38704,-19.8689 -11.92879,-31.8579 -16.20259,-54.8465 -23.54268,-107.7838 -26.58122,-191.706 -1.42838,-39.4507 -1.67596,-120.9647 -1.45114,-477.7704 0.16145,-256.2384 0.41117,-371.6315 0.83443,-385.5878 4.03548,-133.0627 14.45033,-200.8155 39.80624,-258.9554 22.87778,-52.4577 63.32922,-104.9173 108.81811,-141.1212 12.25925,-9.757 31.66981,-22.9097 46.90669,-31.7844 24.79601,-14.4423 54.99637,-27.5472 78.82329,-34.2039 41.36425,-11.5562 93.35603,-18.869 158.31851,-22.2681 28.5354,-1.493 42.80966,-1.8693 92.94472,-2.45 66.71195,-0.7727 774.97059,-0.3507 803.30789,0.4786 74.58713,2.1828 111.22328,5.1416 152.96045,12.3533 34.90069,6.0305 66.10255,14.5431 92.14805,25.1403 28.90007,11.7586 67.93807,35.6951 94.27249,57.8041 24.08118,20.2172 52.39634,51.696 69.50417,77.2697 27.40876,40.9722 44.92544,81.5642 54.48975,126.2709 2.0427,9.5481 7.5352,40.5742 9.5433,53.9079 4.7447,31.5043 7.3924,66.4897 8.9033,117.6415 0.8272,28.0023 1.2273,742.0895 0.4567,814.9924 -0.6825,64.5731 -1.8558,98.6886 -4.564,132.7029 -5.9213,74.3703 -21.87168,136.2374 -47.80384,185.4176 -7.83137,14.852 -18.80155,31.9295 -30.54535,47.5505 -23.00313,30.5976 -46.50391,54.389 -74.58963,75.5123 -48.63111,36.5753 -94.65909,56.7768 -158.32303,69.4872 -51.86283,10.3544 -93.05381,13.1537 -222.7503,15.1381 -27.97184,0.4279 -676.86617,0.5685 -740.10549,0.1603 z"
         id="path3114"
         inkscape:connector-curvature="0" />
      <path
         style="fill:#ffffff;fill-opacity:1"
         d="m -255.18484,3598.5738 c -65.89075,-0.4253 -133.31625,-3.6429 -171.28383,-8.1738 -35.62761,-4.2516 -75.24646,-12.6237 -101.97363,-21.5486 -19.91256,-6.6493 -47.54459,-19.4411 -66.12352,-30.6108 -37.44793,-22.5137 -72.20796,-52.2487 -98.54251,-84.2969 -24.29731,-29.5689 -41.20817,-56.8511 -55.47181,-89.4924 -6.61929,-15.1478 -8.38704,-19.8689 -11.92879,-31.8579 -16.20259,-54.8465 -23.54268,-107.7838 -26.58122,-191.706 -1.42838,-39.4507 -1.67596,-120.9647 -1.45114,-477.7704 0.16145,-256.2384 0.41117,-371.6315 0.83443,-385.5878 4.03548,-133.0627 14.45033,-200.8155 39.80624,-258.9554 22.87778,-52.4577 63.32922,-104.9173 108.81811,-141.1212 12.25925,-9.757 31.66981,-22.9097 46.90669,-31.7844 24.79601,-14.4423 54.99637,-27.5472 78.82329,-34.2039 41.36425,-11.5562 93.35603,-18.869 158.31851,-22.2681 28.5354,-1.493 42.80966,-1.8693 92.94472,-2.45 66.71195,-0.7727 774.97059,-0.3507 803.30789,0.4786 74.58713,2.1828 111.22328,5.1416 152.96045,12.3533 34.90069,6.0305 66.10255,14.5431 92.14805,25.1403 28.90007,11.7586 67.93807,35.6951 94.27249,57.8041 24.08118,20.2172 52.39634,51.696 69.50417,77.2697 27.40876,40.9722 44.92544,81.5642 54.48975,126.2709 2.0427,9.5481 7.5352,40.5742 9.5433,53.9079 4.7447,31.5043 7.3924,66.4897 8.9033,117.6415 0.8272,28.0023 1.2273,742.0895 0.4567,814.9924 -0.6825,64.5731 -1.8558,98.6886 -4.564,132.7029 -5.9213,74.3703 -21.87168,136.2374 -47.80384,185.4176 -7.83137,14.852 -18.80155,31.9295 -30.54535,47.5505 -23.00313,30.5976 -46.50391,54.389 -74.58963,75.5123 -48.63111,36.5753 -94.65909,56.7768 -158.32303,69.4872 -51.86283,10.3544 -93.05381,13.1537 -222.7503,15.1381 -27.97184,0.4279 -676.86617,0.5685 -740.10549,0.1603 z"
         id="path3112"
         inkscape:connector-curvature="0" />
      <path
         style="fill:#ffffff;fill-opacity:1"
         d="m -255.18484,3598.5738 c -65.89075,-0.4253 -133.31625,-3.6429 -171.28383,-8.1738 -35.62761,-4.2516 -75.24646,-12.6237 -101.97363,-21.5486 -19.91256,-6.6493 -47.54459,-19.4411 -66.12352,-30.6108 -37.44793,-22.5137 -72.20796,-52.2487 -98.54251,-84.2969 -24.29731,-29.5689 -41.20817,-56.8511 -55.47181,-89.4924 -6.61929,-15.1478 -8.38704,-19.8689 -11.92879,-31.8579 -16.20259,-54.8465 -23.54268,-107.7838 -26.58122,-191.706 -1.42838,-39.4507 -1.67596,-120.9647 -1.45114,-477.7704 0.16145,-256.2384 0.41117,-371.6315 0.83443,-385.5878 4.03548,-133.0627 14.45033,-200.8155 39.80624,-258.9554 22.87778,-52.4577 63.32922,-104.9173 108.81811,-141.1212 12.25925,-9.757 31.66981,-22.9097 46.90669,-31.7844 24.79601,-14.4423 54.99637,-27.5472 78.82329,-34.2039 41.36425,-11.5562 93.35603,-18.869 158.31851,-22.2681 28.5354,-1.493 42.80966,-1.8693 92.94472,-2.45 66.71195,-0.7727 774.97059,-0.3507 803.30789,0.4786 74.58713,2.1828 111.22328,5.1416 152.96045,12.3533 34.90069,6.0305 66.10255,14.5431 92.14805,25.1403 28.90007,11.7586 67.93807,35.6951 94.27249,57.8041 24.08118,20.2172 52.39634,51.696 69.50417,77.2697 27.40876,40.9722 44.92544,81.5642 54.48975,126.2709 2.0427,9.5481 7.5352,40.5742 9.5433,53.9079 4.7447,31.5043 7.3924,66.4897 8.9033,117.6415 0.8272,28.0023 1.2273,742.0895 0.4567,814.9924 -0.6825,64.5731 -1.8558,98.6886 -4.564,132.7029 -5.9213,74.3703 -21.87168,136.2374 -47.80384,185.4176 -7.83137,14.852 -18.80155,31.9295 -30.54535,47.5505 -23.00313,30.5976 -46.50391,54.389 -74.58963,75.5123 -48.63111,36.5753 -94.65909,56.7768 -158.32303,69.4872 -51.86283,10.3544 -93.05381,13.1537 -222.7503,15.1381 -27.97184,0.4279 -676.86617,0.5685 -740.10549,0.1603 z"
         id="path3110"
         inkscape:connector-curvature="0" />
    </g>
  </g>
  <g
     inkscape:groupmode="layer"
     id="layer2"
     inkscape:label="GUIDES"
     style="display:none"
     transform="translate(0,-2.2054443)"
     sodipodi:insensitive="true">
    <path
       style="color:#000000;display:inline;overflow:visible;visibility:visible;fill:none;stroke:#000000;stroke-width:2;stroke-linecap:butt;stroke-linejoin:miter;stroke-miterlimit:4;stroke-dasharray:none;stroke-dashoffset:0;stroke-opacity:1;marker:none;enable-background:accumulate"
       d="M 0.99801512,321.03518 V 707.31187"
       id="path4024"
       inkscape:connector-curvature="0" />
    <circle
       style="color:#000000;display:inline;overflow:visible;visibility:visible;fill:none;stroke:#000000;stroke-width:1.00571;stroke-linecap:butt;stroke-linejoin:miter;stroke-miterlimit:4;stroke-dasharray:none;stroke-dashoffset:0;stroke-opacity:1;marker:none;enable-background:accumulate"
       id="path3129"
       transform="matrix(1.988799,0,0,1.988471,-407.91018,-80.585593)"
       cx="462.32144"
       cy="298.86218"
       r="138" />
    <circle
       style="color:#000000;display:inline;overflow:visible;visibility:visible;fill:none;stroke:#000000;stroke-width:0.620861;stroke-linecap:butt;stroke-linejoin:miter;stroke-miterlimit:4;stroke-dasharray:none;stroke-dashoffset:0;stroke-opacity:1;marker:none;enable-background:accumulate"
       id="path3129-9"
       transform="matrix(3.2215081,0,0,3.2211587,-977.38931,-448.55899)"
       cx="462.32144"
       cy="298.86218"
       r="138" />
    <path
       style="color:#000000;display:inline;overflow:visible;visibility:visible;fill:none;stroke:#000000;stroke-width:2;stroke-linecap:butt;stroke-linejoin:miter;stroke-miterlimit:4;stroke-dasharray:none;stroke-dashoffset:0;stroke-opacity:1;marker:none;enable-background:accumulate"
       d="M 67.351921,69.489974 956.5625,958.70544"
       id="path4011"
       inkscape:connector-curvature="0"
       sodipodi:nodetypes="cc" />
    <path
       style="color:#000000;display:inline;overflow:visible;visibility:visible;fill:none;stroke:#000000;stroke-width:2;stroke-linecap:butt;stroke-linejoin:miter;stroke-miterlimit:4;stroke-dasharray:none;stroke-dashoffset:0;stroke-opacity:1;marker:none;enable-background:accumulate"
       d="M 0.99801467,707.31189 H 1023.001"
       id="path4028"
       inkscape:connector-curvature="0" />
    <path
       style="color:#000000;display:inline;overflow:visible;visibility:visible;fill:none;stroke:#000000;stroke-width:2;stroke-linecap:butt;stroke-linejoin:miter;stroke-miterlimit:4;stroke-dasharray:none;stroke-dashoffset:0;stroke-opacity:1;marker:none;enable-background:accumulate"
       d="M 0.99801467,513.69318 H 1023.001"
       id="path4030"
       inkscape:connector-curvature="0" />
    <path
       style="color:#000000;display:inline;overflow:visible;visibility:visible;fill:none;stroke:#000000;stroke-width:2;stroke-linecap:butt;stroke-linejoin:miter;stroke-miterlimit:4;stroke-dasharray:none;stroke-dashoffset:0;stroke-opacity:1;marker:none;enable-background:accumulate"
       d="M 0.99801467,321.0352 H 1023.001"
       id="path4032"
       inkscape:connector-curvature="0" />
    <path
       style="color:#000000;display:inline;overflow:visible;visibility:visible;fill:none;stroke:#000000;stroke-width:2;stroke-linecap:butt;stroke-linejoin:miter;stroke-miterlimit:4;stroke-dasharray:none;stroke-dashoffset:0;stroke-opacity:1;marker:none;enable-background:accumulate"
       d="M 319.08193,1026.2054 V 2.2054443"
       id="path4034"
       inkscape:connector-curvature="0"
       sodipodi:nodetypes="cc" />
    <path
       style="color:#000000;display:inline;overflow:visible;visibility:visible;fill:none;stroke:#000000;stroke-width:2;stroke-linecap:butt;stroke-linejoin:miter;stroke-miterlimit:4;stroke-dasharray:none;stroke-dashoffset:0;stroke-opacity:1;marker:none;enable-background:accumulate"
       d="M 511.68014,2.2054443 V 1026.2054"
       id="path4036"
       inkscape:connector-curvature="0"
       sodipodi:nodetypes="cc" />
    <path
       style="color:#000000;display:inline;overflow:visible;visibility:visible;fill:none;stroke:#000000;stroke-width:2;stroke-linecap:butt;stroke-linejoin:miter;stroke-miterlimit:4;stroke-dasharray:none;stroke-dashoffset:0;stroke-opacity:1;marker:none;enable-background:accumulate"
       d="M 706.1875,1026.2054 V 2.2054443"
       id="path4038"
       inkscape:connector-curvature="0"
       sodipodi:nodetypes="cc" />
    <path
       style="color:#000000;display:inline;overflow:visible;visibility:visible;fill:none;stroke:#000000;stroke-width:2;stroke-linecap:butt;stroke-linejoin:miter;stroke-miterlimit:4;stroke-dasharray:none;stroke-dashoffset:0;stroke-opacity:1;marker:none;enable-background:accumulate"
       d="M 67.351921,958.70544 956.5625,69.489974"
       id="path4001"
       inkscape:connector-curvature="0"
       sodipodi:nodetypes="cc" />
    <path
       style="color:#000000;display:inline;overflow:visible;visibility:visible;fill:none;stroke:#000000;stroke-width:2;stroke-linecap:butt;stroke-linejoin:miter;stroke-miterlimit:4;stroke-dasharray:none;stroke-dashoffset:0;stroke-opacity:1;marker:none;enable-background:accumulate"
       d="M 956.5625,69.489974 V 958.70544"
       id="path4003"
       inkscape:connector-curvature="0"
       sodipodi:nodetypes="cc" />
    <path
       style="color:#000000;display:inline;overflow:visible;visibility:visible;fill:none;stroke:#000000;stroke-width:2;stroke-linecap:butt;stroke-linejoin:miter;stroke-miterlimit:4;stroke-dasharray:none;stroke-dashoffset:0;stroke-opacity:1;marker:none;enable-background:accumulate"
       d="M 67.351921,69.489974 H 956.5625"
       id="path4009"
       inkscape:connector-curvature="0"
       sodipodi:nodetypes="cc" />
    <path
       style="color:#000000;display:inline;overflow:visible;visibility:visible;fill:none;stroke:#000000;stroke-width:2;stroke-linecap:butt;stroke-linejoin:miter;stroke-miterlimit:4;stroke-dasharray:none;stroke-dashoffset:0;stroke-opacity:1;marker:none;enable-background:accumulate"
       d="M 67.351921,958.70544 V 69.489974"
       id="path4007"
       inkscape:connector-curvature="0"
       sodipodi:nodetypes="cc" />
    <path
       style="color:#000000;display:inline;overflow:visible;visibility:visible;fill:none;stroke:#000000;stroke-width:2;stroke-linecap:butt;stroke-linejoin:miter;stroke-miterlimit:4;stroke-dasharray:none;stroke-dashoffset:0;stroke-opacity:1;marker:none;enable-background:accumulate"
       d="m 956.5625,958.70544 -889.210579,-3e-5"
       id="path4005"
       inkscape:connector-curvature="0"
       sodipodi:nodetypes="cc" />
    <circle
       style="color:#000000;display:inline;overflow:visible;visibility:visible;fill:none;stroke:#000000;stroke-width:1.42908;stroke-linecap:butt;stroke-linejoin:miter;stroke-miterlimit:4;stroke-dasharray:none;stroke-dashoffset:0;stroke-opacity:1;marker:none;enable-background:accumulate"
       id="path3129-7"
       transform="matrix(1.4025564,0,0,1.3964479,-135.79717,96.569794)"
       cx="462.32144"
       cy="298.86218"
       r="138" />
  </g>
</svg>
